# xmcd
#
# Track frame offsets:
#	150
#	13308
#	31377
#	49541
#	75936
#	92534
#	119330
#	135007
#	151219
#	168579
#	195094
#	221595
#
# Disc length: 3290 seconds
#
# Revision: 1
# Processed by: cddbd v1.4PL0 Copyright (c) Steve Scherf et al.
# Submitted via: CDmax 1.8
#
DISCID=850cd80c
DTITLE=The Sun Mountain Band - Americana
DYEAR=1900
DGENRE=Country
TTITLE0=Hacker's Ball
TTITLE1=Merry Christmas From The Family
TTITLE2=Hula Lou
TTITLE3=Marriage Blues
TTITLE4=Rose of San Antone
TTITLE5=Lake Charles
TTITLE6=Old Johnny Doo
TTITLE7=Wine Into Water
TTITLE8=Wild Wild Heart
TTITLE9=Jolie Louise
TTITLE10=Beered-out Blues
TTITLE11=Princess and the Toad
EXTD=Cajun, Bluegrass, Folk, Celtic, Swing, Rock, Gospel, Country
EXTT0=
EXTT1=
EXTT2=
EXTT3=
EXTT4=
EXTT5=
EXTT6=
EXTT7=
EXTT8=
EXTT9=
EXTT10=
EXTT11=
PLAYORDER=
